PathFileType	4	(X/Y/Z)	s03c0001.trc
DataRate	CameraRate	NumFrames	NumMarkers	Units	OrigDataRate	OrigDataStartFrame	OrigNumFrames
200	200	7	49	mm	200	1000	2000
Frame#	Time	racr			lacr			c7			jug			rlel			rdr			llel			ldr			s2			lic			ric			lasi			rasi			rpsi			lpsi			rgt			lgt			rth1			rth2			rth3			rth4			rlfc			rmfc			rsh1			rsh2			rsh3			rsh4			rlmal			rmmal			rcal			rtoe			rmt5			rmt1			lth1			lth2			lth4			lth3			llfc			lmfc			lsh1			lsh2			lsh3			lsh4			llmal			lmmal			lcal			ltoe			lmt1			lmt5			
		X1	Y1	Z1	X2	Y2	Z2	X3	Y3	Z3	X4	Y4	Z4	X5	Y5	Z5	X6	Y6	Z6	X7	Y7	Z7	X8	Y8	Z8	X9	Y9	Z9	X10	Y10	Z10	X11	Y11	Z11	X12	Y12	Z12	X13	Y13	Z13	X14	Y14	Z14	X15	Y15	Z15	X16	Y16	Z16	X17	Y17	Z17	X18	Y18	Z18	X19	Y19	Z19	X20	Y20	Z20	X21	Y21	Z21	X22	Y22	Z22	X23	Y23	Z23	X24	Y24	Z24	X25	Y25	Z25	X26	Y26	Z26	X27	Y27	Z27	X28	Y28	Z28	X29	Y29	Z29	X30	Y30	Z30	X31	Y31	Z31	X32	Y32	Z32	X33	Y33	Z33	X34	Y34	Z34	X35	Y35	Z35	X36	Y36	Z36	X37	Y37	Z37	X38	Y38	Z38	X39	Y39	Z39	X40	Y40	Z40	X41	Y41	Z41	X42	Y42	Z42	X43	Y43	Z43	X44	Y44	Z44	X45	Y45	Z45	X46	Y46	Z46	X47	Y47	Z47	X48	Y48	Z48	X49	Y49	Z49	
1000	5.0000	265.718079	1574.108032	581.169128	261.595428	1589.401001	199.589417	199.079788	1608.037964	393.184174	366.934540	1557.484741	392.281281	190.363632	1303.638428	692.006836	283.754700	1125.157227	889.097107	189.103683	1318.145020	92.996201	271.891510	1128.769653	-113.207497	161.839554	1068.030884	372.993713	299.384613	1166.218994	194.006561	290.813385	1152.541748	565.180786	360.486237	1104.102417	237.013947	360.500366	1100.786011	518.945251	163.351212	1108.594116	422.574219	167.697052	1117.069702	339.592590	271.600586	1009.195496	560.415222	285.633362	1015.519348	186.574066	284.127502	870.474731	575.748596	314.589020	786.849854	570.133484	304.283752	703.667358	555.549866	350.666992	792.220398	565.582886	298.112915	577.493591	523.879944	329.683868	556.802368	417.646118	243.390732	413.003906	551.952759	254.514252	323.858765	547.803467	219.152496	243.481842	542.068176	288.733551	320.435791	530.357300	209.020966	104.368668	530.893188	249.100861	121.919716	449.987244	165.274689	56.207104	483.295044	468.600952	90.763504	503.295502	353.529327	43.263897	563.461121	378.865753	80.848404	454.007416	297.111450	865.654419	173.839172	320.562012	782.541687	181.223480	356.614929	784.588806	183.330673	299.130859	698.036377	194.932129	313.100494	576.802307	219.803406	334.272034	558.837036	333.579315	253.298523	413.367004	184.223282	265.521484	329.126556	192.657440	230.255981	244.683578	196.192139	299.747498	324.917328	210.953979	221.002167	110.623756	205.958847	259.100037	124.947441	292.793121	172.587616	55.081573	257.999725	479.517029	92.457893	234.453201	389.189697	73.237015	286.043915	358.224243	50.621643	172.408966	
1001	5.0050	265.716858	1574.167114	581.200256	261.619171	1589.393799	199.581360	199.099899	1608.038208	393.192352	366.945129	1557.493042	392.281677	190.421051	1303.629639	691.981567	283.801666	1125.179810	889.112854	189.104233	1318.140259	92.995270	271.888672	1128.775879	-113.239319	161.839554	1068.030884	372.993713	299.415039	1166.220581	194.000992	290.826965	1152.556641	565.174866	360.501465	1104.095581	237.009369	360.515594	1100.794434	518.952148	163.367188	1108.609619	422.588196	167.705154	1117.091309	339.597656	271.620300	1009.198792	560.413086	285.660767	1015.520508	186.567032	284.147583	870.481628	575.753540	314.613403	786.850891	570.135437	304.282898	703.651489	555.551941	350.687012	792.236450	565.603638	298.130463	577.495483	523.890625	329.694916	556.795898	417.630646	243.394989	412.999573	551.959900	254.504730	323.846161	547.805908	219.149323	243.478088	542.063477	288.722046	320.456909	530.373535	209.032181	104.354858	530.903076	249.097504	121.907310	449.997589	165.306015	56.201958	483.294067	468.615143	90.770737	503.310760	353.548950	43.271049	563.450806	378.882141	80.845741	454.007233	297.143585	865.647034	173.844543	320.581207	782.538940	181.236969	356.632019	784.586609	183.333847	299.169067	698.045776	194.935593	313.132660	576.809875	219.814087	334.318207	558.859680	333.594147	253.319382	413.367065	184.222626	265.527771	329.132965	192.653137	230.272339	244.687317	196.204269	299.760559	324.911346	210.961197	220.983429	110.636238	205.968185	259.094177	124.953545	292.784515	172.585739	55.095119	258.008179	479.566650	92.471504	234.441833	389.189270	73.238533	286.044586	358.224060	50.609997	172.393753	
1002	5.0100	265.745026	1574.179077	581.180847	261.683075	1589.397705	199.571335	199.121552	1608.049438	393.197083	366.988739	1557.505127	392.252686	190.432983	1303.648438	691.974182	283.845184	1125.224121	889.119202	189.104919	1318.145264	92.988396	271.884064	1128.784546	-113.256996	161.890488	1068.033325	372.975677	299.445801	1166.211548	193.992462	290.857361	1152.544800	565.153015	360.561859	1104.098267	237.009308	360.524231	1100.795044	518.954102	163.392746	1108.613403	422.569977	167.728561	1117.082031	339.579742	271.636444	1009.207214	560.407715	285.691223	1015.516602	186.564728	284.169952	870.472656	575.747498	314.639008	786.852417	570.120422	304.294373	703.658752	555.544128	350.698029	792.228882	565.566345	298.157227	577.493652	523.891785	329.696686	556.788086	417.634949	243.398819	413.003632	551.953857	254.508453	323.858154	547.806396	219.142776	243.488953	542.078003	288.738251	320.459076	530.378540	209.044968	104.367676	530.897217	249.069733	121.898338	449.985535	165.302582	56.191334	483.297943	468.621735	90.764992	503.304535	353.537445	43.253876	563.450378	378.847839	80.853691	454.015717	297.186615	865.661682	173.848007	320.617371	782.545715	181.237244	356.679382	784.589783	183.346909	299.202301	698.044617	194.944077	313.133240	576.803833	219.800400	334.279907	558.837524	333.571594	253.319931	413.371918	184.212997	265.560699	329.131561	192.662277	230.256668	244.718994	196.168579	299.769714	324.918335	210.980606	220.997299	110.628349	205.964554	259.092194	124.955414	292.797363	172.591507	55.093891	258.003296	479.536621	92.434326	234.435898	389.204285	73.240112	286.041473	358.204590	50.610958	172.407104	
1003	5.0150	265.769684	1574.162720	581.161926	261.708069	1589.380127	199.545319	199.143875	1608.053833	393.178772	366.998932	1557.500854	392.253052	190.480133	1303.695312	691.939392	283.859406	1125.233032	889.112671	189.128967	1318.156860	92.973351	271.865845	1128.805908	-113.277733	161.910400	1068.031616	372.959290	299.471252	1166.211670	193.997253	290.871277	1152.536011	565.164124	360.567383	1104.091309	236.994598	360.549530	1100.784180	518.947327	163.419571	1108.613281	422.558563	167.771210	1117.081909	339.574341	271.644348	1009.209839	560.403442	285.722626	1015.523804	186.557053	284.179657	870.488342	575.756348	314.659546	786.844971	570.119629	304.336517	703.646423	555.543701	350.723022	792.230469	565.575256	298.177551	577.495361	523.891418	329.744202	556.795166	417.662323	243.410217	413.009125	551.964050	254.524994	323.854828	547.819458	219.142502	243.500046	542.070801	288.757935	320.438690	530.378113	209.018234	104.367142	530.891418	249.070694	121.929512	449.991791	165.302612	56.191357	483.297943	468.617950	90.763641	503.314178	353.521973	43.264423	563.449341	378.872955	80.843430	454.022064	297.220551	865.657898	173.842117	320.648987	782.554260	181.230408	356.708618	784.600098	183.344101	299.215240	698.039917	194.942108	313.121857	576.805115	219.800293	334.307892	558.857239	333.571564	253.351456	413.365509	184.218948	265.547668	329.127472	192.649368	230.278320	244.705322	196.157562	299.789246	324.922119	210.978897	221.006302	110.627335	205.963623	259.104187	124.956413	292.783783	172.582870	55.095638	258.000275	479.536469	92.444702	234.433029	389.185883	73.239517	286.042450	358.224152	50.621620	172.409027	
1004	5.0200	265.789246	1574.160156	581.151672	261.731903	1589.367798	199.525726	199.217224	1608.282593	393.134033	367.011108	1557.506104	392.244324	190.483109	1303.703857	691.937378	283.878235	1125.244995	889.108887	189.142609	1318.152100	92.962784	271.859131	1128.828247	-113.316513	161.910431	1068.044067	372.956268	299.481018	1166.209106	193.979065	290.872375	1152.554688	565.161804	360.614014	1104.095947	236.990509	360.558167	1100.784790	518.949280	163.444916	1108.616943	422.540100	167.805115	1117.087280	339.562073	271.659027	1009.208801	560.388367	285.759369	1015.521301	186.548996	284.194153	870.479858	575.756409	314.666870	786.846069	570.122864	304.343018	703.655579	555.551392	350.737579	792.239258	565.599365	298.189697	577.491394	523.913635	329.759979	556.791321	417.668518	243.430695	413.000244	551.975586	254.538071	323.845245	547.811096	219.145218	243.488174	542.078796	288.750977	320.430634	530.380676	209.025955	104.377068	530.908752	249.071014	121.926941	449.993652	165.274765	56.207199	483.295044	468.619781	90.771721	503.301514	353.568085	43.253849	563.457397	378.854584	80.856888	454.029602	297.235260	865.656250	173.843796	320.676178	782.554504	181.218781	356.709473	784.586853	183.344910	299.242828	698.034241	194.962051	313.168976	576.820557	219.822800	334.308105	558.844788	333.566467	253.356216	413.375000	184.206207	265.564392	329.132019	192.661652	230.306137	244.691254	196.151627	299.794647	324.926117	210.979813	221.001022	110.614182	205.964294	259.098999	124.971336	292.774170	172.596802	55.083759	257.994385	479.561829	92.449310	234.427017	389.189178	73.238472	286.044495	358.205627	50.610069	172.405670	
1005	5.0250	265.819214	1574.168457	581.154175	261.754883	1589.359985	199.511642	199.214111	1608.056396	393.144440	367.057434	1557.496948	392.237457	190.528275	1303.707031	691.915955	283.900482	1125.270264	889.123840	189.143555	1318.154785	92.960854	271.847321	1128.836792	-113.335411	161.961349	1068.046387	372.938232	299.533417	1166.218506	193.976578	290.891296	1152.551270	565.149170	360.628174	1104.094482	236.988892	360.586517	1100.791870	518.952271	163.468277	1108.613281	422.542938	167.829269	1117.083618	339.544220	271.669769	1009.213196	560.388367	285.779999	1015.521729	186.557465	284.205292	870.484741	575.743164	314.668091	786.860718	570.141113	304.345764	703.659058	555.559998	350.755341	792.236389	565.593506	298.210083	577.489014	523.924438	329.784760	556.793701	417.681732	243.430878	413.002350	551.980530	254.536667	323.849121	547.834595	219.155106	243.491180	542.090942	288.747040	320.441833	530.387573	209.025284	104.366272	530.906494	249.098679	121.919792	450.003174	165.302643	56.191402	483.297943	468.613312	90.759323	503.318024	353.508728	43.253120	563.473083	378.867798	80.853027	454.021881	297.261932	865.663025	173.819733	320.701599	782.539307	181.242767	356.750183	784.599548	183.352493	299.256409	698.049316	194.954880	313.167297	576.816528	219.807297	334.342377	558.861450	333.572449	253.363251	413.376282	184.200562	265.584564	329.119690	192.668320	230.309021	244.688889	196.159821	299.787598	324.921448	210.963181	221.007401	110.626785	205.960052	259.104889	124.959694	292.771088	172.593979	55.108421	258.003571	479.555420	92.454163	234.441849	389.208679	73.253235	286.052338	358.226044	50.598011	172.403503	
1006	5.0300	265.841278	1574.175781	581.132812	261.777344	1589.355957	199.502182	199.232239	1608.065308	393.153839	367.070404	1557.497803	392.226501	190.537964	1303.631714	691.947205	283.930023	1125.300049	889.137085	189.161331	1318.168091	92.956314	271.830902	1128.857178	-113.364319	161.961868	1068.054321	372.937958	299.537628	1166.219238	193.968002	290.890656	1152.536255	565.150635	360.663422	1104.091919	236.974564	360.604584	1100.791260	518.948425	163.488449	1108.628052	422.536835	167.854843	1117.085205	339.546936	271.676788	1009.221436	560.388916	285.796509	1015.521484	186.550934	284.223328	870.484558	575.750793	314.687561	786.862244	570.131409	304.378723	703.654724	555.563477	350.775177	792.251526	565.595215	298.215729	577.498047	523.928040	329.810699	556.786682	417.701019	243.444656	412.992401	551.976440	254.537018	323.852539	547.849243	219.158844	243.497101	542.091492	288.780365	320.425110	530.397400	209.035355	104.354645	530.908264	249.086441	121.923164	450.002441	165.302658	56.191425	483.297943	468.594757	90.761032	503.310974	353.534546	43.254025	563.471252	378.874664	80.864479	454.036407	297.279205	865.660583	173.831360	320.702240	782.557983	181.228928	356.758392	784.601990	183.343567	299.271637	698.042603	194.969345	313.171417	576.813477	219.821945	334.306793	558.852661	333.564392	253.367447	413.378754	184.203690	265.592590	329.124420	192.650223	230.319656	244.679382	196.156860	299.806396	324.917664	210.970047	221.001968	110.632866	205.960068	259.095367	124.962502	292.780365	172.585999	55.119385	258.000244	479.546051	92.444153	234.429688	389.205719	73.249008	286.056519	358.219025	50.599442	172.407303	
